# xmcd CD database file
#
# Track frame offsets:
#	150
#	4089
#	12226
#	23633
#	30884
#	37756
#	43225
#	52367
#	62166
#	68582
#	73673
#	83448
#	94865
#	100549
#	111330
#	116506
#	131285
#	139527
#	155767
#	158429
#	165920
#	173046
#	177882
#	183169
#	193523
#	199031
#	208944
#	214977
#	220964
#	235183
#	241929
#	249443
#	257934
#	263576
#	274264
#	279503
#	289182
#	297878
#
# Disc length: 4200 seconds
#
# Revision: 0
# Processed by: cddbd v1.5.2PL0 Copyright (c) Steve Scherf et al.
# Submitted via: CDex 1.70beta2
#
DISCID=14106626
DTITLE=DJ SADA - IT'S A PARTY VOL.2
DYEAR=1900
DGENRE=Jazz
TTITLE0=INTRO
TTITLE1=livin' it up - Ja Rule feat. Case
TTITLE2=Rule - Nas feat. Amerie
TTITLE3=Don't Even Try It - Funky DL
TTITLE4=GHOST SHOWERS - GHOSTFACE KILLAH
TTITLE5=EVEN IF - METHOD MAN
TTITLE6=THE ART OF GETTING JUMPED - De La SOUL
TTITLE7=Miss California - DANiE THOMS feat. Pras
TTITLE8=GOT WHAT YOU NEED - EVE feat. DRAG-ON
TTITLE9=WE GONNA MAKE IT (REMIX) - STYLES feat. JADAKISS and EVE
TTITLE10=How We Roll - BIG PUN feat. Ashanti
TTITLE11=FAMILY AFFAIR - MARY J. BLIGE
TTITLE12=WHAT WOULD YOU DO - City high
TTITLE13=My Life - KOOL G RAP feat. G WISE
TTITLE14=EXTENDED FAMILY - JOUNALIST feat. MOP
TTITLE15=Always On Time - Ja Rule feat. Ashanti
TTITLE16=DOWN A CHICK - Ja Rule feat. Charli "Chuck" Baltimore
TTITLE17=DOWN 4 U - Ja Rule feat. Ashanti, Charli Baltimore and Vita
TTITLE18=Hard Knock Life - JAY-Z
TTITLE19=IZO (H.O.V.A.) - JAY-Z
TTITLE20=BEST OF BOTH WORLD - JAY-Z and R.KELLY
TTITLE21=TTP - USHER
TTITLE22=I Need A Girl - P.Diddy feat. Usher an Loon
TTITLE23=WHAT'S LUV - FAT JOE feat. Ashanti
TTITLE24=NEVER DO - ROMINA JOHNSON
TTITLE25=JAMBOREE - NAUGHTY BY NATURE feat. ZHANE
TTITLE26=Reminding (REMIX) - COMMON
TTITLE27=WHAT YOU WANT - THE ROOTS feat. JAGUAR
TTITLE28=BRAIN - Jungle Brothers
TTITLE29=Black Nostaljack (aka. Come On) - Camp Lo
TTITLE30=video (REMIX) - india.arie
TTITLE31=WHO YOU ROLLIN' WITH - LORD DIGGA
TTITLE32=Day By Day - Funky DL
TTITLE33=Messing with my head - Pase Rock and L Universe
TTITLE34=Oh Boy - CAM'RON feat. Juelz Santana
TTITLE35=GIRLS, GIRLS, GIRLS (Part 2) - JAY-Z
TTITLE36=GIRLS, GIRLS, GIRLS - JAY-Z
TTITLE37="We Miss You" - AALIYAH feat. JAY-Z
EXTD=
EXTT0=
EXTT1=
EXTT2=
EXTT3=
EXTT4=
EXTT5=
EXTT6=
EXTT7=
EXTT8=
EXTT9=
EXTT10=
EXTT11=
EXTT12=
EXTT13=
EXTT14=
EXTT15=
EXTT16=
EXTT17=
EXTT18=
EXTT19=
EXTT20=
EXTT21=
EXTT22=
EXTT23=
EXTT24=
EXTT25=
EXTT26=
EXTT27=
EXTT28=
EXTT29=
EXTT30=
EXTT31=
EXTT32=
EXTT33=
EXTT34=
EXTT35=
EXTT36=
EXTT37=
PLAYORDER=
